<svg width="172" height="38" viewBox="0 0 172 38" fill="none" xmlns="http://www.w3.org/2000/svg">
<path d="M0 26.5915V10.6484H5.93303C6.79298 10.6484 7.56632 10.8279 8.26542 11.1805C8.96451 11.5331 9.51513 12.0343 9.92345 12.69C10.3318 13.3458 10.5297 14.1068 10.5297 14.9915C10.5297 15.3503 10.4803 15.7153 10.3875 16.0989C10.2947 16.4763 10.1338 16.8289 9.91108 17.1445C9.68836 17.4662 9.37902 17.7075 8.99545 17.8745C9.49657 17.9982 9.89871 18.2209 10.2019 18.555C10.505 18.8829 10.7401 19.2665 10.8948 19.6934C11.0556 20.1203 11.1608 20.5595 11.2165 21.0111C11.2722 21.4566 11.2969 21.8649 11.2969 22.2299C11.2969 23.0528 11.0865 23.789 10.6597 24.4509C10.2328 25.1129 9.66361 25.6326 8.94596 26.0224C8.2283 26.4121 7.4364 26.6039 6.57026 26.6039H0V26.5915ZM3.14284 16.7238H5.56802C6.06914 16.7238 6.49602 16.5629 6.85485 16.235C7.21368 15.9071 7.39309 15.4864 7.39309 14.9729C7.39309 14.4594 7.21368 14.0387 6.85485 13.7603C6.49602 13.4819 6.06914 13.3458 5.56802 13.3458H3.14284V16.73V16.7238ZM3.14284 23.9189H6.24237C6.65688 23.9189 7.04046 23.8199 7.38072 23.6157C7.72099 23.4116 7.9932 23.1394 8.20355 22.7867C8.40771 22.4341 8.51288 22.0319 8.51288 21.5865C8.51288 21.2091 8.40771 20.8441 8.20355 20.5038C7.99939 20.1636 7.72718 19.8852 7.38072 19.6686C7.03427 19.4521 6.65688 19.3469 6.24237 19.3469H3.14284V23.9251V23.9189Z" fill="white"/>
<path d="M21.282 15.2082H24.4248V26.5979H21.2696L21.1212 25.4162C20.8242 25.8555 20.4468 26.2143 19.9828 26.4865C19.5188 26.7587 18.9744 26.8948 18.3557 26.8948C17.5081 26.8948 16.71 26.734 15.9738 26.4185C15.2376 26.0968 14.588 25.6575 14.025 25.0945C13.462 24.5315 13.0228 23.8819 12.7072 23.1395C12.3917 22.3971 12.2371 21.6052 12.2371 20.7515C12.2371 19.8977 12.3855 19.18 12.6825 18.4748C12.9795 17.7695 13.394 17.1446 13.9322 16.6064C14.4705 16.0681 15.0891 15.6474 15.7944 15.3443C16.4935 15.0411 17.2545 14.8865 18.0649 14.8865C18.764 14.8865 19.3889 15.035 19.9519 15.3319C20.5087 15.6289 20.9974 16.0063 21.4181 16.4579L21.282 15.2082ZM18.2753 23.8696C18.7888 23.8696 19.259 23.7396 19.6735 23.4736C20.088 23.2076 20.4221 22.8487 20.6633 22.3971C20.9046 21.9455 21.0283 21.4444 21.0283 20.8999C21.0283 20.3555 20.9046 19.842 20.6633 19.3966C20.4221 18.9511 20.088 18.5923 19.6735 18.3263C19.2528 18.0603 18.7888 17.9303 18.2753 17.9303C17.7618 17.9303 17.2792 18.0664 16.8523 18.3263C16.4255 18.5923 16.0914 18.9511 15.8377 19.4028C15.5841 19.8544 15.4603 20.3555 15.4603 20.8999C15.4603 21.4444 15.5902 21.9455 15.8439 22.3971C16.0976 22.8487 16.4378 23.2076 16.8647 23.4736C17.2916 23.7396 17.7618 23.8696 18.2753 23.8696Z" fill="white"/>
<path d="M37.2808 19.3533V26.5979H34.1379V20.2194C34.1379 19.8173 34.039 19.4523 33.8472 19.1305C33.6554 18.8088 33.3955 18.549 33.0738 18.3634C32.7521 18.1716 32.3933 18.0788 31.9973 18.0788C31.6014 18.0788 31.2426 18.1716 30.9147 18.3634C30.5868 18.5552 30.3269 18.8088 30.1413 19.1305C29.9495 19.4523 29.8567 19.8173 29.8567 20.2194V26.5979H26.7139L26.7015 15.2082H29.8444L29.8567 16.0496C30.2341 15.6846 30.6796 15.4 31.1931 15.1958C31.7066 14.9916 32.2448 14.8865 32.814 14.8865C33.643 14.8865 34.3916 15.0906 35.0659 15.4928C35.7403 15.8949 36.2723 16.4331 36.6745 17.1013C37.0766 17.7757 37.2808 18.5243 37.2808 19.3533Z" fill="white"/>
<path d="M46.0721 22.9974L48.8932 24.5255C48.3674 25.237 47.7116 25.8123 46.9259 26.2454C46.134 26.6785 45.274 26.895 44.3398 26.895C43.2943 26.895 42.3353 26.6228 41.4754 26.0845C40.6154 25.5463 39.9287 24.8225 39.4152 23.913C38.9017 23.0036 38.6481 22.0013 38.6481 20.9001C38.6481 20.0649 38.7966 19.2854 39.0935 18.5615C39.3905 17.8377 39.7988 17.2005 40.3185 16.6498C40.8382 16.0992 41.4445 15.6662 42.1374 15.3568C42.8303 15.0475 43.5665 14.8928 44.346 14.8928C45.2802 14.8928 46.1402 15.1094 46.9321 15.5424C47.7239 15.9755 48.3797 16.557 48.8994 17.2871L46.0783 18.8152C45.8432 18.5615 45.5772 18.3759 45.274 18.2398C44.9771 18.1099 44.6677 18.0418 44.346 18.0418C43.8573 18.0418 43.4242 18.178 43.0406 18.4378C42.6571 18.7038 42.3539 19.0565 42.1312 19.4895C41.9085 19.9288 41.7971 20.399 41.7971 20.9063C41.7971 21.4136 41.9085 21.8714 42.1374 22.3045C42.3663 22.7375 42.6694 23.084 43.053 23.35C43.4366 23.6161 43.8696 23.746 44.346 23.746C44.6739 23.746 44.9832 23.6779 45.2802 23.5418C45.5772 23.4057 45.8432 23.2201 46.0783 22.9974H46.0721Z" fill="white"/>
<path d="M55.5437 26.8887C54.4981 26.8887 53.5392 26.6164 52.6793 26.0782C51.8193 25.54 51.1326 24.8161 50.6191 23.9067C50.1056 22.9972 49.8519 21.995 49.8519 20.8938C49.8519 20.0585 50.0004 19.279 50.2974 18.5552C50.5943 17.8313 51.0027 17.1941 51.5223 16.6435C52.042 16.0929 52.6483 15.6598 53.3412 15.3505C54.0341 15.0411 54.7704 14.8865 55.5499 14.8865C56.5954 14.8865 57.5544 15.1587 58.4143 15.6969C59.2743 16.2352 59.961 16.959 60.4745 17.8746C60.988 18.7841 61.2416 19.7925 61.2416 20.9061C61.2416 21.7351 61.0931 22.5085 60.7962 23.2261C60.4992 23.95 60.0909 24.581 59.5712 25.1316C59.0515 25.6823 58.4452 26.1153 57.7585 26.4247C57.0718 26.734 56.3356 26.8887 55.5437 26.8887ZM55.5437 23.7458C56.0324 23.7458 56.4655 23.6159 56.8553 23.3561C57.245 23.0962 57.5482 22.7498 57.7647 22.3167C57.9874 21.8836 58.0926 21.4134 58.0926 20.9061C58.0926 20.3988 57.9751 19.9039 57.7462 19.4646C57.5172 19.0254 57.2079 18.6789 56.8181 18.4253C56.4284 18.1654 56.0077 18.0355 55.5437 18.0355C55.0797 18.0355 54.6342 18.1716 54.2445 18.4315C53.8547 18.6975 53.5516 19.0439 53.3288 19.477C53.1061 19.9101 52.9948 20.3864 52.9948 20.8999C52.9948 21.4134 53.1123 21.9207 53.3412 22.3538C53.5701 22.7807 53.8795 23.121 54.2692 23.3746C54.659 23.6283 55.0797 23.752 55.5437 23.752V23.7458Z" fill="white"/>
<path d="M69.0989 26.5915V10.6484H72.2417V26.5915H69.0989Z" fill="white"/>
<path d="M85.8954 19.3533V26.5979H82.7526V20.2194C82.7526 19.8173 82.6536 19.4523 82.4618 19.1305C82.27 18.8088 82.0102 18.549 81.6885 18.3634C81.3667 18.1716 81.0079 18.0788 80.612 18.0788C80.216 18.0788 79.8572 18.1716 79.5293 18.3634C79.2014 18.5552 78.9416 18.8088 78.756 19.1305C78.5642 19.4523 78.4714 19.8173 78.4714 20.2194V26.5979H75.3285L75.3162 15.2082H78.459L78.4714 16.0496C78.8488 15.6846 79.2942 15.4 79.8077 15.1958C80.3212 14.9916 80.8594 14.8865 81.4286 14.8865C82.2576 14.8865 83.0062 15.0906 83.6806 15.4928C84.3549 15.8949 84.887 16.4331 85.2891 17.1013C85.6912 17.7757 85.8954 18.5243 85.8954 19.3533Z" fill="white"/>
<path d="M94.3654 18.3511H92.3176V26.5979H89.1748V18.3511H87.6034V15.2082H89.1748V11.6323H92.3176V15.2082H94.3654V18.3511Z" fill="white"/>
<path d="M101.189 26.8887C100.144 26.8887 99.185 26.6164 98.325 26.0782C97.4651 25.54 96.7783 24.8161 96.2648 23.9005C95.7513 22.991 95.4977 21.9826 95.4977 20.8814C95.4977 20.0524 95.6462 19.279 95.9431 18.5552C96.2401 17.8313 96.6484 17.1941 97.1681 16.6435C97.6878 16.0929 98.2941 15.6598 98.987 15.3505C99.6799 15.0411 100.416 14.8865 101.196 14.8865C102.099 14.8865 102.922 15.0783 103.67 15.468C104.419 15.8578 105.05 16.3837 105.57 17.0518C106.089 17.72 106.461 18.4748 106.683 19.3161C106.906 20.1575 106.943 21.036 106.788 21.9455H98.888C98.987 22.2796 99.1416 22.5827 99.352 22.8487C99.5623 23.121 99.816 23.3313 100.125 23.4922C100.435 23.653 100.787 23.7334 101.189 23.7458C101.585 23.752 101.95 23.6654 102.284 23.4736C102.619 23.2818 102.903 23.0282 103.138 22.7126L106.349 23.455C105.885 24.4635 105.192 25.2925 104.277 25.9297C103.361 26.5731 102.328 26.8948 101.189 26.8948V26.8887ZM98.7766 19.6255H103.615C103.516 19.2481 103.349 18.9016 103.113 18.5985C102.878 18.2953 102.594 18.0541 102.266 17.8808C101.938 17.7076 101.579 17.621 101.189 17.621C100.8 17.621 100.453 17.7076 100.125 17.8808C99.7974 18.0541 99.5129 18.2953 99.2839 18.5923C99.055 18.8893 98.8818 19.2357 98.7766 19.6255Z" fill="white"/>
<path d="M116.971 15.208H120.114V26.7524C120.114 27.5938 119.941 28.3547 119.6 29.0353C119.26 29.7158 118.796 30.2974 118.208 30.7861C117.621 31.2749 116.946 31.646 116.179 31.8997C115.418 32.1595 114.608 32.2895 113.76 32.2895C112.956 32.2895 112.183 32.1348 111.446 31.8193C110.71 31.5038 110.054 31.0707 109.485 30.5139C108.916 29.9571 108.471 29.3199 108.155 28.6022L111.026 27.2906C111.187 27.668 111.403 27.9959 111.681 28.2681C111.96 28.5403 112.275 28.7507 112.64 28.8992C112.999 29.0476 113.377 29.1219 113.76 29.1219C114.175 29.1219 114.577 29.0724 114.96 28.9734C115.344 28.8744 115.684 28.7259 115.994 28.528C116.297 28.33 116.538 28.0825 116.711 27.7856C116.884 27.4886 116.971 27.1421 116.971 26.7524V25.4284C116.625 25.8615 116.198 26.2141 115.703 26.4802C115.208 26.7524 114.633 26.8823 113.977 26.8823C113.154 26.8823 112.387 26.7276 111.669 26.4183C110.951 26.109 110.32 25.6759 109.776 25.1253C109.232 24.5747 108.798 23.9374 108.489 23.2198C108.18 22.4959 108.025 21.7226 108.025 20.8998C108.025 20.0769 108.18 19.2974 108.489 18.5798C108.798 17.8621 109.232 17.2249 109.776 16.6743C110.32 16.1236 110.958 15.6906 111.669 15.3812C112.387 15.0719 113.154 14.9172 113.977 14.9172C114.633 14.9172 115.202 15.0533 115.703 15.3194C116.198 15.5916 116.625 15.938 116.971 16.3711V15.208ZM114.02 23.8694C114.534 23.8694 115.004 23.7333 115.418 23.4672C115.833 23.195 116.167 22.8362 116.402 22.3908C116.643 21.9453 116.761 21.4442 116.761 20.8998C116.761 20.3553 116.643 19.8542 116.402 19.4026C116.161 18.951 115.833 18.5921 115.418 18.3261C114.998 18.0601 114.534 17.9302 114.02 17.9302C113.507 17.9302 113.049 18.0663 112.628 18.3261C112.207 18.5921 111.873 18.951 111.62 19.4026C111.366 19.8542 111.242 20.3553 111.242 20.8998C111.242 21.4442 111.366 21.9453 111.62 22.3969C111.867 22.8486 112.207 23.2074 112.628 23.4734C113.049 23.7395 113.513 23.8694 114.02 23.8694Z" fill="white"/>
<path d="M122.862 26.5915L122.849 15.2018H125.992L126.005 16.0432C126.382 15.6782 126.828 15.3936 127.341 15.1895C127.855 14.9853 128.393 14.8801 128.962 14.8801C129.376 14.8801 129.797 14.942 130.212 15.0595L128.968 18.2395C128.696 18.1281 128.418 18.0663 128.139 18.0663C127.743 18.0663 127.384 18.1591 127.056 18.3509C126.729 18.5426 126.469 18.7963 126.283 19.118C126.091 19.4397 125.999 19.8047 125.999 20.2069V26.5853H122.856L122.862 26.5915Z" fill="white"/>
<path d="M139.28 15.2082H142.423V26.5979H139.268L139.119 25.4162C138.822 25.8555 138.445 26.2143 137.981 26.4865C137.517 26.7587 136.973 26.8948 136.354 26.8948C135.506 26.8948 134.708 26.734 133.972 26.4185C133.236 26.0968 132.586 25.6575 132.023 25.0945C131.46 24.5315 131.021 23.8819 130.706 23.1395C130.39 22.3971 130.235 21.6052 130.235 20.7515C130.235 19.8977 130.384 19.18 130.681 18.4748C130.978 17.7695 131.392 17.1446 131.931 16.6064C132.469 16.0681 133.087 15.6474 133.793 15.3443C134.492 15.0411 135.253 14.8865 136.063 14.8865C136.762 14.8865 137.387 15.035 137.95 15.3319C138.507 15.6289 138.996 16.0063 139.416 16.4579L139.28 15.2082ZM136.274 23.8696C136.787 23.8696 137.257 23.7396 137.672 23.4736C138.086 23.2076 138.42 22.8487 138.662 22.3971C138.903 21.9455 139.027 21.4444 139.027 20.8999C139.027 20.3555 138.903 19.842 138.662 19.3966C138.42 18.9511 138.086 18.5923 137.672 18.3263C137.257 18.0603 136.787 17.9303 136.274 17.9303C135.76 17.9303 135.278 18.0664 134.851 18.3263C134.424 18.5923 134.09 18.9511 133.836 19.4028C133.582 19.8544 133.459 20.3555 133.459 20.8999C133.459 21.4444 133.589 21.9455 133.842 22.3971C134.096 22.8487 134.436 23.2076 134.863 23.4736C135.29 23.7396 135.76 23.8696 136.274 23.8696Z" fill="white"/>
<path d="M144.725 26.5917V9.51025H147.868V26.5917H144.725Z" fill="white"/>
<path d="M150.819 13.3026C150.819 13.3026 163.954 12.4241 170.085 1.04059C170.085 1.04059 170.66 -0.345225 171.625 0.0816571C172.046 0.267258 172.108 0.824059 171.835 1.9191C170.957 5.42077 166.583 13.3026 166.583 13.3026C166.583 13.3026 166.583 32.568 164.832 27.3155C163.081 22.063 163.081 20.3121 158.701 26.437C157.445 28.2002 157.012 28.7755 156.61 28.5961C155.96 28.3053 157.829 23.8138 157.829 23.8138C157.829 23.8138 162.209 12.4303 157.829 14.1811C154.135 15.6597 150.429 14.6451 150.429 13.7666C150.429 13.5068 150.547 13.3583 150.825 13.3088L150.819 13.3026Z" fill="white"/>
<path d="M161.33 7.17155C163.264 7.17155 164.832 5.6038 164.832 3.66988C164.832 1.73596 163.264 0.168213 161.33 0.168213C159.396 0.168213 157.828 1.73596 157.828 3.66988C157.828 5.6038 159.396 7.17155 161.33 7.17155Z" fill="white"/>
<path d="M4.08322 30.2664V31.1634H2.59841V35.8406H1.4848V31.1634H0V30.2664H4.08322Z" fill="white"/>
<path d="M9.0752 31.4173V35.8408H7.94922V35.284C7.80693 35.4758 7.61514 35.6243 7.38623 35.7356C7.15732 35.847 6.90367 35.8965 6.63145 35.8965C6.285 35.8965 5.98185 35.8222 5.71583 35.6738C5.4498 35.5253 5.23945 35.3149 5.09097 35.0242C4.9363 34.7396 4.86206 34.3993 4.86206 34.0034V31.4111H5.98186V33.8487C5.98186 34.2013 6.06847 34.4674 6.24788 34.6591C6.42111 34.8509 6.66239 34.9437 6.96554 34.9437C7.26868 34.9437 7.51616 34.8509 7.68938 34.6591C7.86261 34.4674 7.95541 34.2013 7.95541 33.8487V31.4111H9.08139L9.0752 31.4173Z" fill="white"/>
<path d="M16.0171 33.4525C16.2213 33.7062 16.3202 34.0031 16.3202 34.331C16.3202 34.628 16.246 34.894 16.1037 35.1167C15.9552 35.3456 15.7449 35.5189 15.4665 35.6488C15.1881 35.7787 14.8602 35.8406 14.4828 35.8406H12.0762V30.2664H14.3776C14.755 30.2664 15.0829 30.3282 15.3551 30.452C15.6273 30.5757 15.8377 30.7427 15.98 30.9655C16.1223 31.182 16.1903 31.4295 16.1903 31.7079C16.1903 32.0296 16.1037 32.3018 15.9305 32.5245C15.7573 32.741 15.5283 32.8957 15.2376 32.9885C15.5531 33.0442 15.8067 33.205 16.0109 33.4587M13.196 32.5616H14.2168C14.4828 32.5616 14.687 32.4998 14.8292 32.3822C14.9715 32.2647 15.0458 32.0914 15.0458 31.8687C15.0458 31.646 14.9715 31.4728 14.8292 31.349C14.687 31.2253 14.4828 31.1634 14.2168 31.1634H13.196V32.5616ZM14.9592 34.7332C15.1138 34.6032 15.1881 34.4238 15.1881 34.1887C15.1881 33.9536 15.1077 33.7618 14.9468 33.6257C14.7859 33.4896 14.5694 33.4216 14.2972 33.4216H13.196V34.9249H14.3219C14.5942 34.9249 14.8045 34.8631 14.9592 34.7332Z" fill="white"/>
<path d="M17.1927 32.4195C17.3721 32.0731 17.6134 31.807 17.9165 31.6214C18.2197 31.4358 18.5661 31.343 18.9435 31.343C19.2714 31.343 19.5622 31.4111 19.8096 31.541C20.0571 31.6771 20.2551 31.8441 20.4036 32.0421V31.4111H21.5295V35.8346H20.4036V35.185C20.2613 35.3953 20.0633 35.5623 19.8096 35.6984C19.556 35.8346 19.2652 35.9026 18.9373 35.9026C18.5661 35.9026 18.2258 35.8098 17.9165 35.618C17.6072 35.4262 17.3659 35.154 17.1927 34.8076C17.0132 34.4611 16.9266 34.059 16.9266 33.6073C16.9266 33.1557 17.0132 32.766 17.1927 32.4195ZM20.2489 32.9268C20.1437 32.735 20.0014 32.5804 19.8158 32.4814C19.6364 32.3762 19.4384 32.3267 19.2343 32.3267C19.0301 32.3267 18.8321 32.3762 18.6589 32.4814C18.4857 32.5804 18.3434 32.7288 18.232 32.9268C18.1207 33.1186 18.0712 33.3537 18.0712 33.6197C18.0712 33.8857 18.1269 34.1208 18.232 34.3188C18.3434 34.5168 18.4857 34.6715 18.6651 34.7766C18.8445 34.8818 19.0363 34.9375 19.2343 34.9375C19.4322 34.9375 19.6364 34.888 19.8158 34.7828C19.9952 34.6776 20.1375 34.5292 20.2489 34.3374C20.3541 34.1456 20.4097 33.9105 20.4097 33.6383C20.4097 33.3661 20.3541 33.131 20.2489 32.9392" fill="white"/>
<path d="M26.3547 31.8502C26.6764 32.1843 26.8435 32.6483 26.8435 33.2422V35.8345H25.7237V33.3907C25.7237 33.0381 25.6371 32.7721 25.4576 32.5803C25.2844 32.3885 25.0431 32.2957 24.74 32.2957C24.4368 32.2957 24.1894 32.3885 24.01 32.5803C23.8305 32.7721 23.7439 33.0381 23.7439 33.3907V35.8345H22.6241V31.411H23.7439V31.9616C23.8924 31.7698 24.0842 31.6213 24.3131 31.51C24.542 31.3986 24.7957 31.3491 25.0741 31.3491C25.5999 31.3491 26.0268 31.5162 26.3547 31.8502Z" fill="white"/>
<path d="M27.8954 32.4257C28.081 32.0792 28.3408 31.8132 28.6687 31.6276C28.9966 31.4358 29.374 31.343 29.8009 31.343C30.3515 31.343 30.8031 31.4791 31.162 31.7513C31.5208 32.0236 31.7621 32.4071 31.8858 32.9083H30.6794C30.6175 32.7165 30.5062 32.568 30.3577 32.4566C30.203 32.3453 30.0174 32.2958 29.7947 32.2958C29.473 32.2958 29.2193 32.4133 29.0337 32.6422C28.8481 32.8711 28.7553 33.2052 28.7553 33.6259C28.7553 34.0466 28.8481 34.3745 29.0337 34.6034C29.2193 34.8323 29.473 34.9499 29.7947 34.9499C30.2463 34.9499 30.5433 34.7457 30.6794 34.3436H31.8858C31.7621 34.8199 31.5208 35.2035 31.162 35.4881C30.8031 35.7727 30.3453 35.9088 29.8071 35.9088C29.3802 35.9088 29.0028 35.816 28.6749 35.6242C28.347 35.4324 28.0872 35.1664 27.9016 34.8261C27.716 34.4859 27.6232 34.0837 27.6232 33.6259C27.6232 33.1681 27.716 32.766 27.9016 32.4257" fill="white"/>
<path d="M33.525 35.6246C33.1847 35.439 32.9187 35.1668 32.7207 34.8203C32.5289 34.4739 32.4299 34.0779 32.4299 33.6201C32.4299 33.1623 32.5289 32.7664 32.7269 32.4199C32.9249 32.0735 33.1971 31.8074 33.5435 31.6156C33.89 31.4239 34.2736 31.3311 34.7005 31.3311C35.1273 31.3311 35.5109 31.4239 35.8574 31.6156C36.2038 31.8074 36.476 32.0735 36.674 32.4199C36.872 32.7664 36.971 33.1685 36.971 33.6201C36.971 34.0718 36.8658 34.4739 36.6616 34.8203C36.4575 35.1668 36.1791 35.4328 35.8326 35.6246C35.4862 35.8164 35.0964 35.9092 34.6633 35.9092C34.2303 35.9092 33.8529 35.8164 33.5126 35.6246M35.2449 34.7894C35.4243 34.6904 35.5666 34.5419 35.6718 34.344C35.7769 34.146 35.8326 33.9047 35.8326 33.6263C35.8326 33.2056 35.7213 32.8839 35.4985 32.655C35.2758 32.4261 35.0098 32.3147 34.6881 32.3147C34.3664 32.3147 34.1003 32.4261 33.8838 32.655C33.6673 32.8839 33.5621 33.2056 33.5621 33.6263C33.5621 34.047 33.6673 34.3687 33.8776 34.5976C34.088 34.8265 34.354 34.9379 34.6695 34.9379C34.8737 34.9379 35.0593 34.8884 35.2387 34.7894" fill="white"/>
<path d="M45.7813 30.2664V35.8406H44.6615V32.2152L43.1705 35.8406H42.3229L40.8257 32.2152V35.8406H39.7059V30.2664H40.9742L42.7498 34.4053L44.5192 30.2664H45.7813Z" fill="white"/>
<path d="M51.114 31.4172L48.3795 37.9318H47.1855L48.1444 35.7232L46.375 31.4172H47.6247L48.7692 34.5044L49.9262 31.4172H51.114Z" fill="white"/>
<path d="M53.4282 31.5472C53.6818 31.4111 53.9726 31.343 54.2943 31.343C54.6717 31.343 55.012 31.4358 55.3213 31.6214C55.6245 31.807 55.8719 32.073 56.0452 32.4133C56.2246 32.7536 56.3112 33.1557 56.3112 33.6073C56.3112 34.059 56.2246 34.4611 56.0452 34.8076C55.8657 35.154 55.6245 35.4262 55.3213 35.618C55.0182 35.8098 54.6717 35.9026 54.2943 35.9026C53.9726 35.9026 53.6818 35.8346 53.4344 35.7046C53.1869 35.5685 52.9889 35.4015 52.8343 35.2035V37.9442H51.7145V31.4111H52.8343V32.0483C52.9766 31.8441 53.1745 31.6771 53.4282 31.541M55.0058 32.9206C54.8944 32.7288 54.7521 32.5804 54.5727 32.4752C54.3933 32.3762 54.2015 32.3205 53.9912 32.3205C53.7808 32.3205 53.6014 32.37 53.422 32.4752C53.2426 32.5804 53.1003 32.7288 52.9889 32.9268C52.8776 33.1248 52.8281 33.3537 52.8281 33.6197C52.8281 33.8857 52.8838 34.1147 52.9889 34.3126C53.1003 34.5106 53.2426 34.6591 53.422 34.7643C53.6014 34.8694 53.7932 34.9189 53.9912 34.9189C54.1891 34.9189 54.3933 34.8632 54.5727 34.7581C54.7521 34.6529 54.8944 34.4982 55.0058 34.3003C55.1172 34.1023 55.1666 33.8672 55.1666 33.595C55.1666 33.3228 55.111 33.1 55.0058 32.9021" fill="white"/>
<path d="M61.2107 33.9601H57.9751C57.9999 34.2818 58.1112 34.5292 58.3092 34.7087C58.5072 34.8881 58.7484 34.9809 59.033 34.9809C59.4475 34.9809 59.7445 34.8015 59.9177 34.4488H61.1241C60.9942 34.8757 60.7529 35.2222 60.3879 35.5006C60.0229 35.7728 59.5836 35.9089 59.0516 35.9089C58.6247 35.9089 58.2411 35.8161 57.9071 35.6243C57.5668 35.4325 57.3069 35.1665 57.1152 34.82C56.9234 34.4736 56.8306 34.0776 56.8306 33.6198C56.8306 33.162 56.9234 32.7599 57.109 32.4134C57.2946 32.0669 57.5544 31.8009 57.8885 31.6153C58.2226 31.4297 58.6123 31.3369 59.0454 31.3369C59.4785 31.3369 59.8435 31.4297 60.1776 31.6091C60.5117 31.7885 60.7715 32.0484 60.9509 32.3825C61.1365 32.7165 61.2293 33.1001 61.2293 33.527C61.2293 33.6879 61.2169 33.8301 61.1984 33.9601M60.0848 33.2115C60.0848 32.9269 59.9734 32.6918 59.7754 32.5186C59.5713 32.3453 59.3238 32.2587 59.033 32.2587C58.7546 32.2587 58.5257 32.3453 58.3339 32.5124C58.1422 32.6794 58.0308 32.9145 57.9875 33.2115H60.0848Z" fill="white"/>
</svg>
